<svg width="6" height="9" viewBox="0 0 6 9" fill="none" xmlns="http://www.w3.org/2000/svg">
  <path
    d="M0.426557 3.1385C0.426557 2.6695 0.528057 2.2425 0.731057 1.8575C0.941057 1.4655 1.24206 1.1575 1.63406 0.9335C2.02606 0.7025 2.49156 0.587 3.03056 0.587C3.54156 0.587 3.98256 0.671 4.35356 0.839C4.73156 1.007 5.02206 1.2415 5.22506 1.5425C5.42806 1.8435 5.52956 2.1865 5.52956 2.5715C5.52956 3.0265 5.43506 3.387 5.24606 3.653C5.06406 3.912 4.79456 4.164 4.43756 4.409C4.12256 4.619 3.89856 4.801 3.76556 4.955C3.63956 5.109 3.57656 5.291 3.57656 5.501V5.6375H2.19056V5.3435C2.19056 4.9445 2.27806 4.633 2.45306 4.409C2.63506 4.185 2.91856 3.961 3.30356 3.737C3.54856 3.583 3.72706 3.4255 3.83906 3.2645C3.95106 3.1035 4.00706 2.918 4.00706 2.708C4.00706 2.456 3.91956 2.253 3.74456 2.099C3.56956 1.938 3.33506 1.8575 3.04106 1.8575C2.70506 1.8575 2.43556 1.9765 2.23256 2.2145C2.02956 2.4455 1.92806 2.7535 1.92806 3.1385H0.426557ZM2.05406 7.2125C2.05406 6.9675 2.13456 6.768 2.29556 6.614C2.46356 6.453 2.67356 6.3725 2.92556 6.3725C3.17756 6.3725 3.38406 6.453 3.54506 6.614C3.71306 6.768 3.79706 6.9675 3.79706 7.2125C3.79706 7.4575 3.71306 7.6605 3.54506 7.8215C3.37706 7.9825 3.17056 8.063 2.92556 8.063C2.68056 8.063 2.47406 7.9825 2.30606 7.8215C2.13806 7.6605 2.05406 7.4575 2.05406 7.2125Z"
    fill="currentColor" />
</svg>